<?xml version="1.0" encoding="UTF-8" standalone="no"?>
<svg
   xmlns:dc="http://purl.org/dc/elements/1.1/"
   xmlns:cc="http://creativecommons.org/ns#"
   xmlns:rdf="http://www.w3.org/1999/02/22-rdf-syntax-ns#"
   xmlns:svg="http://www.w3.org/2000/svg"
   xmlns="http://www.w3.org/2000/svg"
   xmlns:sodipodi="http://sodipodi.sourceforge.net/DTD/sodipodi-0.dtd"
   xmlns:inkscape="http://www.inkscape.org/namespaces/inkscape"
   viewBox="0 0 45 45"
   style=""
   xml:space="preserve"
   version="1.1"
   id="svg2"
   sodipodi:docname="thumb.svg"
   inkscape:version="0.92.4 5da689c313, 2019-01-14"><sodipodi:namedview
     pagecolor="#ffffff"
     bordercolor="#666666"
     borderopacity="1"
     objecttolerance="10"
     gridtolerance="10"
     guidetolerance="10"
     inkscape:pageopacity="0"
     inkscape:pageshadow="2"
     inkscape:window-width="2880"
     inkscape:window-height="1552"
     id="namedview840"
     showgrid="false"
     inkscape:snap-bbox="true"
     inkscape:bbox-paths="true"
     inkscape:snap-bbox-edge-midpoints="true"
     inkscape:bbox-nodes="true"
     inkscape:snap-bbox-midpoints="true"
     inkscape:object-paths="true"
     inkscape:snap-intersection-paths="true"
     inkscape:snap-smooth-nodes="true"
     inkscape:snap-midpoints="true"
     inkscape:snap-page="true"
     inkscape:snap-text-baseline="true"
     inkscape:snap-center="true"
     inkscape:snap-object-midpoints="true"
     inkscape:zoom="32"
     inkscape:cx="14.893903"
     inkscape:cy="24.658295"
     inkscape:window-x="0"
     inkscape:window-y="32"
     inkscape:window-maximized="1"
     inkscape:current-layer="layer2" /><metadata
     id="metadata8"><rdf:RDF><cc:Work
         rdf:about=""><dc:format>image/svg+xml</dc:format><dc:type
           rdf:resource="http://purl.org/dc/dcmitype/StillImage" /><dc:title></dc:title></cc:Work></rdf:RDF></metadata><defs
     id="defs6"><clipPath
       id="clipPath16"
       clipPathUnits="userSpaceOnUse"><path
         id="path18"
         d="M 0,36 36,36 36,0 0,0 0,36 Z" /></clipPath><clipPath
       id="clipPath28"
       clipPathUnits="userSpaceOnUse"><path
         id="path30"
         d="M 6,29 6,12 C 6,5.373 11.372,0 18,0 l 0,0 c 6.627,0 12,5.373 12,12 l 0,0 0,17 c 0,2.016 -2,5 -12,5 l 0,0 C 8,34 6,31.016 6,29" /></clipPath><clipPath
       id="clipPath42"
       clipPathUnits="userSpaceOnUse"><path
         id="path44"
         d="M 0,36 36,36 36,0 0,0 0,36 Z" /></clipPath><clipPath
       clipPathUnits="userSpaceOnUse"
       id="clipPath16-5"><path
         d="M 0,36 36,36 36,0 0,0 0,36 Z"
         id="path18-3" /></clipPath><clipPath
       clipPathUnits="userSpaceOnUse"
       id="clipPath28-5"><path
         d="M 6,29 6,12 C 6,5.373 11.372,0 18,0 l 0,0 c 6.627,0 12,5.373 12,12 l 0,0 0,17 c 0,2.016 -2,5 -12,5 l 0,0 C 8,34 6,31.016 6,29"
         id="path30-6" /></clipPath><clipPath
       clipPathUnits="userSpaceOnUse"
       id="clipPath42-2"><path
         d="M 0,36 36,36 36,0 0,0 0,36 Z"
         id="path44-9" /></clipPath><clipPath
       clipPathUnits="userSpaceOnUse"
       id="clipPath16-9"><path
         d="M 0,36 36,36 36,0 0,0 0,36 Z"
         id="path18-36" /></clipPath><clipPath
       clipPathUnits="userSpaceOnUse"
       id="clipPath28-0"><path
         d="M 6,29 6,12 C 6,5.373 11.372,0 18,0 l 0,0 c 6.627,0 12,5.373 12,12 l 0,0 0,17 c 0,2.016 -2,5 -12,5 l 0,0 C 8,34 6,31.016 6,29"
         id="path30-62" /></clipPath><clipPath
       clipPathUnits="userSpaceOnUse"
       id="clipPath42-6"><path
         d="M 0,36 36,36 36,0 0,0 0,36 Z"
         id="path44-1" /></clipPath></defs><g
     inkscape:groupmode="layer"
     id="layer1"
     inkscape:label="mouse"
     style="display:none"><g
       id="g12"
       transform="matrix(1.25,0,0,-1.25,0,45)"><g
         clip-path="url(#clipPath16-9)"
         id="g14"><g
           transform="translate(18,34)"
           id="g20"><path
             inkscape:connector-curvature="0"
             id="path22"
             style="fill:#99aab5;fill-opacity:1;fill-rule:nonzero;stroke:none"
             d="m 0,0 c -10,0 -12,-2.984 -12,-5 v -17 c 0,-6.627 5.373,-12 12,-12 6.627,0 12,5.373 12,12 v 17 c 0,2.016 -2,5 -12,5" /></g></g></g><path
       inkscape:connector-curvature="0"
       id="path32"
       style="fill:#292f33;fill-opacity:1;fill-rule:nonzero;stroke:none;stroke-width:1.25"
       d="m 27.5,12.5 h -10 v -10 h 10 z" /><g
       id="g38"
       transform="matrix(1.25,0,0,-1.25,0,45)"><g
         clip-path="url(#clipPath42-6)"
         id="g40"><g
           transform="translate(22,25.5)"
           id="g46"><path
             inkscape:connector-curvature="0"
             id="path48"
             style="fill:#292f33;fill-opacity:1;fill-rule:nonzero;stroke:none"
             d="m 0,0 c 0,-1.381 -1.79,-2.5 -4,-2.5 -2.209,0 -4,1.119 -4,2.5 0,1.381 1.791,2.5 4,2.5 2.21,0 4,-1.119 4,-2.5" /></g><g
           transform="translate(20,27)"
           id="g50"><path
             inkscape:connector-curvature="0"
             id="path52-8"
             style="fill:#99aab5;fill-opacity:1;fill-rule:nonzero;stroke:none"
             d="m 0,0 c 0,-1.104 -0.895,-2 -2,-2 -1.104,0 -2,0.896 -2,2 v 7 c 0,1.105 0.896,2 2,2 1.105,0 2,-0.895 2,-2 z" /></g></g></g></g><g
     inkscape:groupmode="layer"
     id="layer2"
     inkscape:label="buttons"
     style="display:inline"><path
       inkscape:connector-curvature="0"
       id="path858"
       d="M 17.710938,13.976562 C 9.3520248,14.809926 7.5,17.843779 7.5,20 v 10 c 0,8.28375 6.71625,15 15,15 8.28375,0 15,-6.71625 15,-15 V 20 C 37.5,17.843779 35.647974,14.809925 27.289062,13.976562 26.693542,15.286224 24.787176,16.25 22.5,16.25 c -2.286141,0 -4.193278,-0.963778 -4.789062,-2.273438 z"
       style="fill:#99aab5;fill-opacity:1;fill-rule:nonzero;stroke:none;stroke-width:1.25" /><path
       style="fill:#292f33;fill-opacity:1;fill-rule:nonzero;stroke:none;stroke-width:1.25"
       d="M 20.005859 11.308594 C 19.105593 11.349328 18.28016 11.41759 17.5 11.5 C 9.3240573 12.363646 7.5 15.362333 7.5 17.5 L 7.5 20 C 7.5 17.843779 9.3520253 14.809925 17.710938 13.976562 C 18.306722 15.286221 20.213859 16.25 22.5 16.25 C 24.787176 16.25 26.693542 15.286223 27.289062 13.976562 C 35.647974 14.809925 37.5 17.843779 37.5 20 L 37.5 17.5 C 37.5 15.362333 35.675943 12.363646 27.5 11.5 C 26.71984 11.41759 25.894448 11.349334 24.994141 11.308594 C 24.962272 12.66091 23.861175 13.75 22.5 13.75 C 21.140057 13.75 20.037763 12.66091 20.005859 11.308594 z "
       id="path1872" /><path
       style="fill:#99aab5;fill-opacity:1;fill-rule:nonzero;stroke:none;stroke-width:1.25"
       d="M 20,2.5625 C 19.11225,2.6058089 18.275678,2.6680631 17.5,2.75 18.275678,2.6680629 19.11225,2.6058089 20,2.5625 Z"
       id="path1689"
       inkscape:connector-curvature="0" /><path
       style="fill:#99aab5;fill-opacity:1;fill-rule:nonzero;stroke:none;stroke-width:1.25"
       d="M 25,2.5625 C 25.88775,2.6058089 26.724322,2.6680631 27.5,2.75 26.724322,2.6680631 25.88775,2.6058089 25,2.5625 Z"
       id="path1685"
       inkscape:connector-curvature="0" /><path
       style="fill:#99aab5;fill-opacity:1;fill-rule:nonzero;stroke:none;stroke-width:1.25"
       d="m 27.5,2.75 v 8.75 c 8.175943,0.863646 10,3.862333 10,6 V 8.75 c 0,-2.1376671 -1.824057,-5.1363536 -10,-6 z"
       id="path1683"
       inkscape:connector-curvature="0" /><path
       style="fill:#292f33;fill-opacity:1;fill-rule:nonzero;stroke:none;stroke-width:1.25"
       d="M 7.5 28.992188 L 7.5 30 C 7.5 31.761039 7.8193486 33.443785 8.3769531 35.013672 C 9.6027035 34.979918 9.6796875 34.821021 9.6796875 33.892578 L 9.6796875 28.992188 L 7.5 28.992188 z "
       id="path22-1" /><path
       d="m 25,11.25 c 0,1.38 -1.11875,2.5 -2.5,2.5 -1.38,0 -2.5,-1.12 -2.5,-2.5 V 2.5 C 20,1.11875 21.12,0 22.5,0 23.88125,0 25,1.11875 25,2.5 Z"
       style="fill:#99aab5;fill-opacity:1;fill-rule:nonzero;stroke:none;stroke-width:1.25"
       id="path52"
       inkscape:connector-curvature="0" /><path
       style="display:inline;fill:#292f33;fill-opacity:1;fill-rule:nonzero;stroke:none;stroke-width:1.25"
       d="M 20,2.5625 C 19.11225,2.6058089 18.275678,2.6680629 17.5,2.75 v 8.75 c 0.78016,-0.08241 1.605593,-0.150672 2.505859,-0.191406 C 20.005389,11.28865 20,11.270057 20,11.25 Z"
       id="path1883" /><path
       style="display:inline;fill:#292f33;fill-opacity:1;fill-rule:nonzero;stroke:none;stroke-width:1.25"
       d="M 25,2.5625 V 11.25 c 0,0.02006 -0.0054,0.03865 -0.0059,0.05859 0.900307,0.04074 1.72574,0.109 2.5059,0.19141 V 2.75 C 26.724322,2.6680631 25.88775,2.6058089 25,2.5625 Z"
       id="path1675" /><path
       style="fill:#292f33;fill-opacity:1;stroke:none;stroke-width:2.02126074px;stroke-linecap:butt;stroke-linejoin:miter;stroke-opacity:1"
       d="m 7.5,16.280137 v 6.367761 h 2.1791718 v -5.282122 c 0,-1.089105 -0.004,-1.085639 -2.1791718,-1.085639 z"
       id="path1885"
       inkscape:connector-curvature="0" /><path
       style="opacity:1;fill:#292f33;fill-opacity:1;stroke:none;stroke-width:4.04252148;stroke-linecap:round;stroke-miterlimit:4;stroke-dasharray:none;stroke-dashoffset:0;stroke-opacity:1"
       d="m 7.5004126,22.647898 h 2.1783462 v 6.345235 H 7.5004126 Z"
       id="rect1889"
       inkscape:connector-curvature="0" /><path
       style="opacity:1;fill:#536045;fill-opacity:1;stroke:none;stroke-width:4.04252148;stroke-linecap:round;stroke-miterlimit:4;stroke-dasharray:none;stroke-dashoffset:0;stroke-opacity:1"
       d="M 5.7237842,17.99742 C 5.7237842,17.507677 6.7678895,17.5 7.5,17.5 l 0.4995738,16.296414 c -0.7191764,0 -2.2757896,-0.0028 -2.2757896,-0.465838 z"
       id="rect1900"
       inkscape:connector-curvature="0"
       sodipodi:nodetypes="ccccc" /><path
       style="fill:#99aab5;fill-opacity:1;fill-rule:nonzero;stroke:none;stroke-width:1.25"
       d="m 17.5,2.75 c -8.1759427,0.8636464 -10,3.8623329 -10,6 v 8.75 c 0,-2.137667 1.8240573,-5.136354 10,-6 z"
       id="path1687"
       inkscape:connector-curvature="0" /></g></svg>